<svg xmlns="http://www.w3.org/2000/svg" width="400" height="400" viewBox="0 0 400 400"><path fill="#303D4A" d="M74 28.5l4.3-8.3h2.4l-5.7 10.4v4.8h-2v-4.8l-5.7-10.4h2.4l4.3 8.3zm17 2.7c0 1.3-.1 3.5-2.9 4.2-.8.2-1.5.2-2.1.2-.7 0-1.3-.1-2.1-.2-2.9-.7-2.9-2.9-2.9-4.2v-2.5c0-1.3.1-3.5 2.9-4.2.8-.2 1.4-.2 2.1-.2.7 0 1.3.1 2.1.2 2.8.7 2.9 2.9 2.9 4.2v2.5zm-2.1-2.5c-.1-2.3-1.2-2.7-3-2.7-2.1 0-3 .6-3 2.7v2.5c0 2.2 1.2 2.7 3 2.7 2.1 0 3-.6 3-2.7v-2.5zm7.2-3.2c1.3-.5 2.8-1.1 4.3-1.2v2c-.8 0-2.9.2-4.1.7v8.4h-2.1v-10.9h1.6l.3 1zm13.2-1h2.7l-4.4 4.5 4.5 6.4h-2.5l-3.4-5.3-1.4 1.4v3.9h-2.1v-15.2h2.1v9h.1l2.1-2.4 2.3-2.3zm4.8 8.7c1.1.5 2.4.7 3.4.7 1.6 0 2.5-.3 2.5-1.3 0-.8-.7-1.1-1.4-1.5l-2.1-1c-1.6-.8-2.2-1.5-2.2-3 0-1.9 1.4-2.8 4.5-2.8.5 0 1.8.1 2.8.4v1.8c-.8-.3-2.4-.4-2.8-.4-1.7 0-2.4.3-2.4 1.1 0 .7.4.9 1 1.2l2.3 1.1c1.5.7 2.4 1.6 2.4 3.1 0 2.2-1.6 3-4.6 3-1 0-2.2-.2-3.4-.6v-1.8zm12.9 2.2h-2v-15.2h2.1v4.4c.6-.1 1.4-.3 2.8-.3.7 0 1.3.1 2.1.2 2.7.7 2.8 2.9 2.8 4.2v6.7h-2.1v-6.7c0-2.2-.8-2.7-2.8-2.7-1.1 0-2.2.1-2.8.3v9.1zm12.1-12.8c-.8 0-1.2-.2-1.2-1.2v-.2c0-1 .4-1.2 1.2-1.2.8 0 1.2.2 1.2 1.2v.2c0 1-.4 1.2-1.2 1.2zm-1 1.9h2.1v10.9h-2.1v-10.9zm7.5 1c1.3-.5 2.8-1.1 4.3-1.2v2c-.8 0-2.9.2-4.1.7v8.4h-2.1v-10.9h1.6l.3 1zm8.3 4.9c0 2.2.6 3 1.9 3.3.4.1.9.1 1.5.1 1.1 0 2.4-.1 3.1-.3v1.7c-.7.1-1.9.3-3.1.3-.6 0-1.3 0-1.9-.2-2.9-.7-3.5-2.1-3.5-5.5 0-4.8 1.9-5.7 5-5.7s4.9 1.2 4.4 6.1h-7.4zm5.3-1.5c.2-2.2-.5-3-2.5-3-1.9 0-2.8.8-2.9 3h5.4z"/><path fill="#B8306A" d="M164.2 35.4v-15.2h5.9c4.6.1 6.8 1.7 6.8 6.2v2.9c0 4.6-2.5 6.2-6.8 6.2h-5.9zm5.9-2.7c2.6 0 3.6-1 3.6-3.5v-2.9c0-2.7-1.2-3.5-3.6-3.5h-2.7v9.9h2.7zm11.3-9.4c-1.2 0-1.7-.2-1.7-1.6v-.2c0-1.3.6-1.5 1.7-1.5 1.2 0 1.7.2 1.7 1.5v.2c.1 1.3-.5 1.6-1.7 1.6zm-1.5 1.2h3.2v10.9h-3.2v-10.9zm10.1 11.1c-2.7-.1-4.3-1.4-4.3-4.5v-2.1c0-2.7.9-4.7 4.1-4.7.8 0 2 .3 3.1.8l.2-.6h2.5v9.5c0 2.1 0 4.6-3.6 5.6-1.7.4-3.7.4-4.9.4h-.9v-2.5c1.9 0 4 0 5.2-.4.8-.3 1-1 1-1.8-.6.1-1.3.3-2.4.3zm2.5-8.5c-.6-.1-1.3-.2-1.8-.2-1.5 0-1.9.5-1.9 1.9v2.3c0 1.6.6 1.9 1.9 1.9.7 0 1.3-.1 1.8-.2v-5.7zm7.9-3.8c-1.2 0-1.7-.2-1.7-1.6v-.2c0-1.3.6-1.5 1.7-1.5 1.2 0 1.7.2 1.7 1.5v.2c0 1.3-.6 1.6-1.7 1.6zm-1.6 1.2h3.2v10.9h-3.2v-10.9zm13 10.9c-.8.1-1.6.2-2.2.2-2.2 0-3.8-1.1-3.8-3.4v-5.4h-1.5v-2.3h1.6l.5-2.7h2.6v2.7h2.9v2.3h-2.9v5c0 .7.3 1.3 1.1 1.3.4 0 1 0 1.8-.1v2.4zm2-6.6c0-1.3.1-3.5 3-4.3.7-.2 1.3-.3 2.1-.3 1.6 0 3 .2 4.8.7v10.4h-2.5l-.2-.6c-1.1.6-2.2.8-3 .8-3.2 0-4.1-1.9-4.1-4.6v-2.1zm3.2 2.3c0 1.4.4 1.9 1.9 1.9.4 0 1.1-.1 1.6-.3v-5.7c-.6-.1-1.2-.1-1.6-.1-1.6 0-1.9.7-1.9 2.1v2.1zm9.8-10.9h3.2v15.2h-3.2v-15.2z"/><path fill="#B43670" d="M29.4 57l-4.8-4.3.2.3 4.6 7 4.6-7 .2-.3-4.8 4.3zm26.6-19.4l-5.6 3.2c.1 0 .2 0 .3-.1l8.1-2.2-5.2-6.5c-.1-.1-.1-.2-.2-.2l2.6 5.8zm-10.1-31.2l1.3 6.3v-.3l.4-8.4-7.8 2.9-.3.1 6.4-.6zm-32.9 0l6.4.6-.3-.1-7.9-2.9.4 8.4v.3l1.4-6.3zm-10.2 31.2l2.6-5.9-.2.3-5.2 6.5 8.1 2.2.3.1-5.6-3.2z"/><path fill="#303D4A" d="M40.1 5.6c-.6-3.3-3.6-5.6-6.9-5.6h-7.5c-3.4 0-6.4 2.5-7 5.9-.4 2.5 0 5.1 1.3 7.4l9.4 15.1 9.4-15.1c1.4-2.3 1.8-5.1 1.3-7.7zm-10.7 16.9l-7.9-11.1c-1.1-1.6-1.5-3.6-1.1-5.4.5-2.5 3-4.3 5.9-4.3h6.3c2.8 0 5.3 1.7 5.8 4.1.4 1.9.1 3.9-1.1 5.6l-7.9 11.1zm-18.9-10.9c-3.4-.4-6.5 1.7-7.5 4.9l-2.3 7.2c-1.1 3.3.4 6.9 3.4 8.5 2.3 1.2 4.9 1.6 7.4 1l17.3-4.3-11.4-13.7c-1.9-2-4.3-3.3-6.9-3.6zm12.7 15.4l-13 4.1c-1.9.5-3.9.3-5.5-.6-2.2-1.2-3.2-4.2-2.3-6.9l2-6c.9-2.7 3.3-4.5 5.7-4.2 1.9.2 3.7 1.1 5 2.7l8.1 10.9zm-16.2 14.7c-1.4 3.1-.4 6.7 2.3 8.6l6.1 4.4c2.8 2 6.6 1.8 9.1-.7 1.8-1.8 3-4.2 3.3-6.8l1.2-17.6-16.5 6.6c-2.4 1.1-4.4 3.1-5.5 5.5zm18.6-7.4l-.1 13.6c-.1 2-.9 3.8-2.3 5-1.9 1.7-4.9 1.8-7.3.1l-5.1-3.7c-2.3-1.6-3.3-4.5-2.3-6.8.8-1.8 2.2-3.2 4.2-3.9l12.9-4.3zm8.9 20c2.5 2.3 6.2 2.5 8.9.5l6.1-4.4c2.8-2 3.7-5.8 2.2-8.9-1.1-2.3-3-4.2-5.4-5.2l-16.5-6.6 1.2 17.6c.3 2.7 1.6 5.2 3.5 7zm-1.2-20l12.9 4.3c1.9.7 3.3 2 4.1 3.8 1.1 2.3.1 5.2-2.2 6.9l-5.1 3.7c-2.3 1.6-5.3 1.7-7.1.1-1.5-1.3-2.3-3.1-2.4-5.2l-.2-13.6zm21.7-2.3c2.9-1.6 4.3-5.2 3.2-8.3l-2.3-7.2c-1.1-3.3-4.3-5.3-7.8-4.8-2.5.4-4.9 1.6-6.6 3.5l-11.5 13.6 17.3 4.3c2.6.6 5.4.2 7.7-1.1zm-19.4-5l8.1-11c1.2-1.6 3-2.5 4.8-2.7 2.5-.3 5 1.5 5.9 4.2l2 6c.9 2.7 0 5.5-2.1 6.8-1.7 1-3.7 1.3-5.7.7l-13-4z"/></svg>